<?xml version="1.0" ?><svg enable-background="new 0 0 32 32" height="32px" id="svg2" version="1.1" viewBox="0 0 32 32" width="32px" xml:space="preserve" xmlns="http://www.w3.org/2000/svg" xmlns:cc="http://creativecommons.org/ns#" xmlns:dc="http://purl.org/dc/elements/1.1/" xmlns:inkscape="http://www.inkscape.org/namespaces/inkscape" xmlns:rdf="http://www.w3.org/1999/02/22-rdf-syntax-ns#" xmlns:sodipodi="http://sodipodi.sourceforge.net/DTD/sodipodi-0.dtd" xmlns:svg="http://www.w3.org/2000/svg"><g id="background"><rect fill="none" height="32" width="32"/></g><g id="xml"><path d="M26,20c-1.296,0-2.492,0.414-3.473,1.112l-5.113-5.113l5.112-5.112C23.507,11.585,24.703,12,26,12c3.312,0,6-2.687,6-6   s-2.688-6-6-6c-3.316,0-6,2.687-6,6c0,1.295,0.414,2.491,1.111,3.472l-5.112,5.113l-5.112-5.112C11.585,8.492,12,7.295,12,6   c0-3.313-2.686-6-6-6S0,2.687,0,6s2.686,6,6,6c1.296,0,2.492-0.415,3.473-1.113l5.112,5.112l-5.113,5.113   C8.491,20.414,7.295,20,6,20c-3.314,0-6,2.688-6,6s2.686,6,6,6s6-2.688,6-6c0-1.296-0.415-2.492-1.113-3.473l5.112-5.113   l5.113,5.113C20.414,23.509,20,24.705,20,26c0,3.312,2.684,6,6,6c3.312,0,6-2.688,6-6S29.312,20,26,20z"/></g></svg>